C:\GBW_MyPrograms\PredSim_2D_BCN\PredSimResults\BCN_CP1\BCN_CP1_job30.mot
version=1
nRows=13
nColumns=29
inDegrees=yes
endheader
                time	         pelvis_tilt	           pelvis_tx	           pelvis_ty	       hip_flexion_l	       hip_flexion_r	        knee_angle_l	        knee_angle_r	       ankle_angle_l	       ankle_angle_r	    lumbar_extension	hamstrings_r/activation	bifemsh_r/activation	glut_max_r/activation	iliopsoas_r/activation	rect_fem_r/activation	  vasti_r/activation	gastroc_r/activation	 soleus_r/activation	tib_ant_r/activation	hamstrings_l/activation	bifemsh_l/activation	glut_max_l/activation	iliopsoas_l/activation	rect_fem_l/activation	  vasti_l/activation	gastroc_l/activation	 soleus_l/activation	tib_ant_l/activation	
          0.51647219	         -7.31052563	          0.59649727	          0.91349428	         30.37394366	        -10.40064339	        -26.90655909	        -12.14475042	          7.47748530	        -17.92105943	          0.96519964	          0.04999999	          0.04999999	          0.08996417	          0.22240956	          0.25643693	          0.11851211	          0.17817936	          0.20164512	          0.04999999	          0.13677688	          0.04999999	          0.16106412	          0.04999999	          0.04999999	          0.31865693	          0.04999999	          0.19402549	          0.20824251	
          0.52680164	         -7.33010634	          0.61165903	          0.91293356	         29.70016638	        -11.13378061	        -27.53151801	        -12.09283306	          8.44751648	        -19.65247827	          1.39881618	          0.06569230	          0.04999999	          0.08068469	          0.18974377	          0.21877346	          0.10110597	          0.15200975	          0.17202905	          0.15767011	          0.11668815	          0.04999999	          0.18405798	          0.04999999	          0.04999999	          0.38410598	          0.04999999	          0.22256870	          0.17765747	
          0.53713108	         -7.35451433	          0.62650334	          0.91286015	         29.00643285	        -11.81863262	        -28.05147157	        -12.08873299	          9.26508580	        -20.84407012	          1.79994066	          0.05889711	          0.07179502	          0.08411511	          0.16187567	          0.19432520	          0.08625631	          0.12968374	          0.14676275	          0.14866392	          0.09954990	          0.04999999	          0.18311113	          0.04999999	          0.04999999	          0.42607220	          0.06434462	          0.24991792	          0.15156451	
          0.54746052	         -7.38416386	          0.64094645	          0.91320637	         28.23762103	        -12.46140453	        -28.36448259	        -11.93560588	          9.93166107	        -20.97299665	          2.15957380	          0.07337887	          0.06125035	          0.07579940	          0.13810063	          0.20763682	          0.07358765	          0.11063680	          0.12520738	          0.16716990	          0.08492878	          0.04999999	          0.17396417	          0.04999999	          0.04999999	          0.43665690	          0.07788909	          0.27274091	          0.13498932	
          0.55778997	         -7.41853184	          0.65498902	          0.91401157	         27.37674635	        -13.05104238	        -28.44282553	        -11.58076427	         10.44568722	        -20.47773887	          2.47826303	          0.08134592	          0.10188310	          0.08292194	          0.11781748	          0.21356952	          0.06277966	          0.09438732	          0.10681789	          0.16936667	          0.07651330	          0.04999999	          0.15583142	          0.04999999	          0.04999999	          0.42204920	          0.09216198	          0.29283229	          0.12720596	
          0.56811941	         -7.45680226	          0.66863829	          0.91526465	         26.43633609	        -13.55946017	        -28.30951601	        -11.10122558	         10.80465268	        -19.73941032	          2.75681599	          0.08487162	          0.10254250	          0.07781317	          0.10051336	          0.21602974	          0.05355907	          0.08052444	          0.09112930	          0.16627898	          0.07294258	          0.04999999	          0.14184619	          0.04999999	          0.04999999	          0.39108158	          0.10651244	          0.30919372	          0.12132271	
          0.57844886	         -7.49795904	          0.68191388	          0.91690565	         25.43439996	        -13.97519244	        -27.99870408	        -10.55678877	         11.00755088	        -18.85983712	          2.99711540	          0.08250966	          0.08797213	          0.06638458	          0.08861473	          0.21698703	          0.04999999	          0.06869764	          0.07774494	          0.16124223	          0.07331769	          0.04999999	          0.13325859	          0.04999999	          0.04999999	          0.35166429	          0.12066239	          0.32182589	          0.11063679	
          0.58877830	         -7.54123829	          0.69484546	          0.91885615	         24.38698571	        -14.30588317	        -27.54233547	         -9.95532514	         11.05616235	        -17.89667828	          3.20239689	          0.08230432	          0.07505147	          0.06231549	          0.10681497	          0.21505431	          0.04999999	          0.05860786	          0.06632636	          0.15302218	          0.07864965	          0.04999999	          0.13697576	          0.04999999	          0.04999999	          0.31013126	          0.13421681	          0.33054353	          0.09438732	
          0.59910774	         -7.58614247	          0.70745726	          0.92103883	         23.30664860	        -14.55733822	        -26.96655141	         -9.29170400	         10.96185791	        -16.88622587	          3.37529690	          0.07182594	          0.06402849	          0.06522833	          0.12540559	          0.21213967	          0.04999999	          0.04999999	          0.05658486	          0.14324655	          0.08413775	          0.04999999	          0.14136413	          0.04999999	          0.04999999	          0.26943891	          0.14726604	          0.33574604	          0.08052444	
          0.60943719	         -7.63220303	          0.71976938	          0.92338085	         22.20468708	        -14.73490264	        -26.29680271	         -8.55228984	         10.74930505	        -15.88288040	          3.51779110	          0.06127671	          0.05462449	          0.07216742	          0.14360036	          0.20730198	          0.04999999	          0.04999999	          0.04999999	          0.14160988	          0.08986656	          0.04999999	          0.14371198	          0.04999999	          0.04999999	          0.23088176	          0.15966327	          0.33790130	          0.06869763	
          0.61976663	         -7.67899184	          0.73179601	          0.92581357	         21.09361639	        -14.84017634	        -25.56014669	         -7.73150680	         10.44156495	        -14.93947251	          3.63102271	          0.05227686	          0.05000000	          0.08043896	          0.15944411	          0.20142415	          0.04999999	          0.04999999	          0.04999999	          0.14582096	          0.09545051	          0.04999999	          0.14257233	          0.04999999	          0.04999999	          0.19697164	          0.17126252	          0.33749135	          0.05860786	
          0.63009608	         -7.72618640	          0.74354370	          0.92827425	         19.98683592	        -14.86657433	        -24.78399032	         -6.84931612	         10.05865738	        -14.06247638	          3.71520735	          0.04999999	          0.05000000	          0.08742154	          0.17366327	          0.19568934	          0.04999999	          0.04999999	          0.04999999	          0.14847884	          0.10013390	          0.04999999	          0.13652639	          0.04999999	          0.04999999	          0.16804197	          0.18183938	          0.33486956	          0.04999999	
          0.64042552	         -7.77363069	          0.75501351	          0.93070676	         18.89817328	        -14.80081812	        -23.99643553	         -5.94737426	          9.62481131	        -13.22311455	          3.76999444	          0.04999999	          0.04999999	          0.08891143	          0.18439965	          0.18968519	          0.04999999	          0.04999999	          0.04999999	          0.15166870	          0.10458129	          0.04999999	          0.12962073	          0.04999999	          0.04999999	          0.14336127	          0.19121373	          0.33053728	          0.04999999	
